<?xml version="1.0" encoding="UTF-8"?>
<svg id="Layer_2" data-name="Layer 2" xmlns="http://www.w3.org/2000/svg" viewBox="0 0 15.05 21.24">
  <g id="Layer_1-2" data-name="Layer 1">
    <g>
      <rect x="7.08" width="1.77" height=".89"/>
      <polygon points="2.66 10.62 2.66 11.51 3.54 11.51 3.54 12.39 4.43 12.39 4.43 11.5 4.43 10.62 4.43 7.97 3.54 7.97 3.54 10.62 2.66 10.62"/>
      <rect x=".89" y="9.74" width="1.77" height=".89"/>
      <rect y="10.62" width=".89" height="1.77"/>
      <rect x=".89" y="12.39" width=".89" height=".89"/>
      <rect x="1.77" y="13.28" width=".89" height="1.77"/>
      <rect x="2.66" y="15.05" width=".89" height="1.77"/>
      <rect x="3.54" y="16.82" width=".89" height="1.77"/>
      <rect x="4.43" y="18.59" width=".89" height="1.77"/>
      <rect x="5.31" y="20.36" width="7.08" height=".89"/>
      <rect x="12.39" y="18.59" width=".89" height="1.77"/>
      <rect x="13.28" y="15.93" width=".89" height="2.66"/>
      <rect x="14.16" y="9.74" width=".89" height="6.2"/>
      <rect x="13.28" y="8.85" width=".89" height=".89"/>
      <polygon points="13.28 8.85 13.28 7.97 12.36 7.97 11.51 7.97 11.51 8.86 11.51 11.51 12.39 11.51 12.39 8.85 13.28 8.85"/>
      <polygon points="8.85 7.98 8.85 10.62 8.85 10.62 9.74 10.62 9.74 10.62 9.74 7.97 11.51 7.97 11.51 7.08 9.74 7.08 9.74 .89 8.85 .89 8.85 7.1 8.85 7.98"/>
      <polygon points="6.2 9.74 7.08 9.74 7.08 .89 6.2 .89 6.2 7.08 4.43 7.08 4.43 7.97 6.2 7.97 6.2 9.74"/>
    </g>
  </g>
</svg>